{
    "asset" : {
        "generator" : "Khronos glTF Blender I/O v1.0.5",
        "version" : "2.0"
    },
    "scene" : 0,
    "scenes" : [
        {
            "name" : "Scene",
            "nodes" : [
                0,
                1,
                2,
                3,
                4
            ]
        }
    ],
    "nodes" : [
        {
            "name" : "Light",
            "rotation" : [
                0.16907575726509094,
                0.7558803558349609,
                -0.27217137813568115,
                0.570947527885437
            ],
            "translation" : [
                4.076245307922363,
                3.712812900543213,
                -1.0054539442062378
            ]
        },
        {
            "name" : "Camera",
            "rotation" : [
                0.483536034822464,
                0.33687159419059753,
                -0.20870360732078552,
                0.7804827094078064
            ],
            "translation" : [
                7.358891487121582,
                2.7672600746154785,
                6.925790786743164
            ]
        },
        {
            "mesh" : 0,
            "name" : "Cylinder",
            "rotation" : [
                0.7071068286895752,
                0,
                0,
                0.7071067094802856
            ],
            "translation" : [
                0,
                -1.178249478340149,
                0
            ]
        },
        {
            "mesh" : 1,
            "name" : "Cylinder.001",
            "rotation" : [
                0.7071068286895752,
                0,
                0,
                0.7071067094802856
            ],
            "scale" : [
                1,
                1,
                0.45013225078582764
            ],
            "translation" : [
                0,
                2.5343785285949707,
                0
            ]
        },
        {
            "mesh" : 2,
            "name" : "Cylinder.002",
            "rotation" : [
                0.7071068286895752,
                0,
                0,
                0.7071067094802856
            ],
            "scale" : [
                0.6610446572303772,
                0.661044716835022,
                0.661044716835022
            ],
            "translation" : [
                0.009216565638780594,
                1.1913352012634277,
                0
            ]
        }
    ],
    "materials" : [
        {
            "doubleSided" : true,
            "name" : "Material.001",
            "pbrMetallicRoughness" : {
                "baseColorTexture" : {
                    "index" : 0,
                    "texCoord" : 0
                },
                "metallicFactor" : 0,
                "roughnessFactor" : 0.5
            }
        }
    ],
    "meshes" : [
        {
            "name" : "Cylinder",
            "primitives" : [
                {
                    "attributes" : {
                        "POSITION" : 0,
                        "NORMAL" : 1,
                        "TEXCOORD_0" : 2
                    },
                    "indices" : 3,
                    "material" : 0
                }
            ]
        },
        {
            "name" : "Cylinder.001",
            "primitives" : [
                {
                    "attributes" : {
                        "POSITION" : 4,
                        "NORMAL" : 5,
                        "TEXCOORD_0" : 6
                    },
                    "indices" : 7,
                    "material" : 0
                }
            ]
        },
        {
            "name" : "Cylinder.002",
            "primitives" : [
                {
                    "attributes" : {
                        "POSITION" : 8,
                        "NORMAL" : 9,
                        "TEXCOORD_0" : 10
                    },
                    "indices" : 11,
                    "material" : 0
                }
            ]
        }
    ],
    "textures" : [
        {
            "source" : 0
        }
    ],
    "images" : [
        {
            "bufferView" : 4,
            "mimeType" : "image/png",
            "name" : "Image_0"
        }
    ],
    "accessors" : [
        {
            "bufferView" : 0,
            "componentType" : 5126,
            "count" : 30992,
            "max" : [
                0.662155032157898,
                0.657685399055481,
                0.9924355745315552
            ],
            "min" : [
                -0.653215765953064,
                -0.6576854586601257,
                -3.928588628768921
            ],
            "type" : "VEC3"
        },
        {
            "bufferView" : 1,
            "componentType" : 5126,
            "count" : 30992,
            "type" : "VEC3"
        },
        {
            "bufferView" : 2,
            "componentType" : 5126,
            "count" : 30992,
            "type" : "VEC2"
        },
        {
            "bufferView" : 3,
            "componentType" : 5123,
            "count" : 174336,
            "type" : "SCALAR"
        },
        {
            "bufferView" : 5,
            "componentType" : 5126,
            "count" : 14252,
            "max" : [
                0.3494306206703186,
                0.3396582305431366,
                -0.01873982697725296
            ],
            "min" : [
                -0.31763166189193726,
                -0.33965858817100525,
                -0.5894948244094849
            ],
            "type" : "VEC3"
        },
        {
            "bufferView" : 6,
            "componentType" : 5126,
            "count" : 14252,
            "type" : "VEC3"
        },
        {
            "bufferView" : 7,
            "componentType" : 5126,
            "count" : 14252,
            "type" : "VEC2"
        },
        {
            "bufferView" : 8,
            "componentType" : 5123,
            "count" : 15348,
            "type" : "SCALAR"
        },
        {
            "bufferView" : 9,
            "componentType" : 5126,
            "count" : 520,
            "max" : [
                0.9935951828956604,
                0.9935951828956604,
                0.6020950078964233
            ],
            "min" : [
                -0.9935951828956604,
                -0.9935952425003052,
                -0.7779669165611267
            ],
            "type" : "VEC3"
        },
        {
            "bufferView" : 10,
            "componentType" : 5126,
            "count" : 520,
            "type" : "VEC3"
        },
        {
            "bufferView" : 11,
            "componentType" : 5126,
            "count" : 520,
            "type" : "VEC2"
        },
        {
            "bufferView" : 12,
            "componentType" : 5123,
            "count" : 2304,
            "type" : "SCALAR"
        }
    ],
    "bufferViews" : [
        {
            "buffer" : 0,
            "byteLength" : 371904,
            "byteOffset" : 0
        },
        {
            "buffer" : 0,
            "byteLength" : 371904,
            "byteOffset" : 371904
        },
        {
            "buffer" : 0,
            "byteLength" : 247936,
            "byteOffset" : 743808
        },
        {
            "buffer" : 0,
            "byteLength" : 348672,
            "byteOffset" : 991744
        },
        {
            "buffer" : 0,
            "byteLength" : 669180,
            "byteOffset" : 1340416
        },
        {
            "buffer" : 0,
            "byteLength" : 171024,
            "byteOffset" : 2009596
        },
        {
            "buffer" : 0,
            "byteLength" : 171024,
            "byteOffset" : 2180620
        },
        {
            "buffer" : 0,
            "byteLength" : 114016,
            "byteOffset" : 2351644
        },
        {
            "buffer" : 0,
            "byteLength" : 30696,
            "byteOffset" : 2465660
        },
        {
            "buffer" : 0,
            "byteLength" : 6240,
            "byteOffset" : 2496356
        },
        {
            "buffer" : 0,
            "byteLength" : 6240,
            "byteOffset" : 2502596
        },
        {
            "buffer" : 0,
            "byteLength" : 4160,
            "byteOffset" : 2508836
        },
        {
            "buffer" : 0,
            "byteLength" : 4608,
            "byteOffset" : 2512996
        }
    ],
    "buffers" : [
        {
            "byteLength" : 2517604,
            "uri" : "data:application/octet-stream;base64,"
        }
    ]
}
